# xmcd
#
# Track frame offsets: 
#        150
#        12999
#        25418
#        37853
#        51321
#        62101
#        74605
#        85714
#        101686
#        114865
#        129973
#        139702
#        156133
#        168546
#        181801
#        194761
#        226683
#        241970
#        256675
#        267585
#
# Disc length: 3767 seconds
#
# Revision: 2
# Processed by: cddbd v1.5.2PL0 Copyright (c) Steve Scherf et al.
# Submitted via: ExactAudioCopy v1.1
#
DISCID=0d0eb514
DTITLE=Jerry Williams, Jr. (Swamp Dogg) - Jerry Williams Jr. a.k.a. Sw
DTITLE=amp Dogg - Swamp's Things
DYEAR=2000
DGENRE=R&B
TTITLE0=Jerry Williams - If You Ask Me (Because I Love You) (mono)
TTITLE1=Jerry Williams - Yvonne (mono)
TTITLE2=Little Jerry Williams - Just What Do You Plan To Do About It (
TTITLE2=mono)
TTITLE3=Little Jerry Williams - Baby You're My Everything (take 4 - ma
TTITLE3=ster) (mono)
TTITLE4=Jerry Williams - What's The Matter With You Baby (mono)
TTITLE5=Jerry Williams - Baby, Bunny (Sugar, Honey) (mono)
TTITLE6=Jerry Williams - Philly Duck (mono)
TTITLE7=Jerry Williams - Your Man (stereo)
TTITLE8=Jerry Williams - Kiss Me (stereo)
TTITLE9=Little Jerry Williams - Baby You're My Everything (take 3 - al
TTITLE9=t) (mono)
TTITLE10=Swamp Dogg - Paradoxical (No Bugles)
TTITLE11=Swamp Dogg - Buzzard Luck
TTITLE12=Swamp Dogg - Ebony And Jet
TTITLE13=Swamp Dogg - Eat The Goose (Before The Goose Eats You)
TTITLE14=Swamp Dogg - Don't You Try To Be My Man
TTITLE15=Swamp Dogg - Call Me Nigger
TTITLE16=Swamp Dogg - I Can't Stand To Hear Her Say Please
TTITLE17=Swamp Dogg - I'm Still In Love With You
TTITLE18=Swamp Dogg - Or Forever Hold Your Peace
TTITLE19=Swamp Dogg - I've Never Been To Africa
EXTD=
EXTT0=
EXTT1=
EXTT2=
EXTT3=
EXTT4=
EXTT5=
EXTT6=
EXTT7=
EXTT8=
EXTT9=
EXTT10=
EXTT11=
EXTT12=
EXTT13=
EXTT14=
EXTT15=
EXTT16=
EXTT17=
EXTT18=
EXTT19=
PLAYORDER=
